<!-- icon666.com - MILLIONS vector ICONS FREE --><svg viewBox="0 -5 492 492" xmlns="http://www.w3.org/2000/svg"><path d="m65.761719 56.644531c.023437-20.792969 14.378906-38.820312 34.636719-43.5-17.914063-4.136719-36.53125 3.136719-46.902344 18.320313-10.367188 15.179687-10.367188 35.167968 0 50.351562 10.371094 15.183594 28.988281 22.453125 46.902344 18.320313-20.253907-4.683594-34.609376-22.707031-34.636719-43.492188zm0 0" fill="#d4e1f4"></path><path d="m100.398438 147.664062c-3.3125-.433593-6.652344-.65625-10-.664062-41.210938 0-75.097657 32.402344-78.171876 72.402344h20c3.054688-36.957032 31.421876-66.804688 68.171876-71.738282zm0 0" fill="#d4e1f4"></path><path d="m376.960938 308c.027343-20.789062 14.382812-38.816406 34.640624-43.5-17.914062-4.136719-36.53125 3.136719-46.902343 18.320312-10.371094 15.183594-10.371094 35.171876 0 50.351563 10.371093 15.183594 28.988281 22.457031 46.902343 18.320313-20.253906-4.679688-34.609374-22.703126-34.640624-43.492188zm0 0" fill="#d4e1f4"></path><path d="m411.601562 398.664062c-3.316406-.433593-6.65625-.65625-10-.664062-41.210937 0-75.101562 32.402344-78.171874 72.402344h20c3.050781-36.957032 31.417968-66.804688 68.171874-71.738282zm0 0" fill="#d4e1f4"></path><path d="m32 437.859375v-135.652344c.011719-4.214843 1.699219-8.25 4.691406-11.214843 2.988282-2.964844 7.039063-4.617188 11.253906-4.59375h-20c-4.214843-.023438-8.265624 1.628906-11.253906 4.59375-2.992187 2.964843-4.679687 7-4.691406 11.214843v135.652344c.019531 4.183594 1.722656 8.1875 4.71875 11.109375s7.039062 4.515625 11.226562 4.429688h20c-4.1875.085937-8.230468-1.507813-11.226562-4.429688s-4.699219-6.925781-4.71875-11.109375zm0 0" fill="#d4e1f4"></path><path d="m464.054688 19.398438h-20c8.855468.140624 15.957031 7.367187 15.945312 16.222656v135.652344c.003906 8.835937-7.105469 16.03125-15.945312 16.125h20c8.839843-.09375 15.949218-7.289063 15.945312-16.125v-135.652344c.011719-8.855469-7.089844-16.082032-15.945312-16.222656zm0 0" fill="#d4e1f4"></path><g fill="#0635c9"><path d="m320.222656 43.738281c-2.539062-2.128906-6.324218-1.792969-8.453125.746094l-20.597656 24.605469-20.601563-24.605469c-2.140624-2.5-5.894531-2.816406-8.429687-.714844-2.535156 2.101563-2.914063 5.847657-.855469 8.417969l23.714844 28.429688v2.78125h-8.582031c-3.3125 0-6 2.6875-6 6 0 3.316406 2.6875 6 6 6h8.582031v5h-8.582031c-3.3125 0-6 2.6875-6 6 0 3.316406 2.6875 6 6 6h8.582031v3.941406c0 3.3125 2.6875 6 6 6s6-2.6875 6-6v-3.941406h8.917969c3.3125 0 6-2.683594 6-6 0-3.3125-2.6875-6-6-6h-8.917969v-5h8.917969c3.3125 0 6-2.683594 6-6 0-3.3125-2.6875-6-6-6h-8.917969v-2.78125l23.886719-28.429688c2.152343-2.515625 1.855469-6.300781-.664063-8.449219zm0 0"></path><path d="m311.101562 390.527344c-2.289062-.507813-4.617187-.832032-6.957031-.964844-15.277343-1.425781-29.144531-4.21875-29.144531-22.425781v-64.929688c.058594-7.363281-2.828125-14.441406-8.019531-19.664062-5.1875-5.222657-12.246094-8.152344-19.609375-8.144531h-219.425782c-7.394531-.019532-14.496093 2.898437-19.738281 8.113281-5.242187 5.214843-8.191406 12.300781-8.207031 19.695312v135.652344c.0234375 7.367187 2.988281 14.417969 8.234375 19.589844 5.25 5.171875 12.34375 8.035156 19.710937 7.949219h219.425782c7.332031.070312 14.390625-2.804688 19.582031-7.980469 5.195313-5.179688 8.09375-12.226563 8.046875-19.558594v-8.929687c.03125-.769532.570312-1.425782 1.320312-1.609376 28.3125-5 37.199219-23.5625 38.898438-27.90625.609375-1.132812.847656-2.429687.675781-3.707031-.386719-2.546875-2.285156-4.601562-4.792969-5.179687zm-36.871093 24.976562c-6.496094 1.175782-11.222657 6.824219-11.230469 13.425782v8.929687c.050781 4.152344-1.582031 8.148437-4.527344 11.074219-2.945312 2.929687-6.949218 4.539062-11.101562 4.464844h-219.425782c-4.1875.085937-8.230468-1.507813-11.226562-4.429688s-4.699219-6.925781-4.71875-11.109375v-135.652344c.011719-4.214843 1.699219-8.25 4.691406-11.214843 2.988282-2.964844 7.039063-4.617188 11.253906-4.59375h219.425782c4.179687-.011719 8.191406 1.65625 11.128906 4.628906 2.941406 2.972656 4.5625 7 4.5 11.179687v64.929688c0 28.511719 24.257812 32.757812 37.234375 34.109375-3.972656 5.078125-11.65625 11.722656-26.003906 14.257812zm0 0"></path><path d="m220.832031 382.398438h-12.730469c-3.316406 0-6 2.6875-6 6 0 3.316406 2.683594 6 6 6h12.726563c3.3125 0 6-2.683594 6-6 0-3.3125-2.6875-6-6-6zm0 0"></path><path d="m184.800781 394.398438c3.3125 0 6-2.683594 6-6 0-3.3125-2.6875-6-6-6h-66.4375c-3.3125 0-6 2.6875-6 6 0 3.316406 2.6875 6 6 6zm0 0"></path><path d="m220.832031 345.398438h-102.46875c-3.3125 0-6 2.6875-6 6 0 3.316406 2.6875 6 6 6h102.46875c3.3125 0 6-2.683594 6-6 0-3.3125-2.6875-6-6-6zm0 0"></path><path d="m220.832031 309.398438h-59.453125c-3.316406 0-6 2.6875-6 6 0 3.316406 2.683594 6 6 6h59.453125c3.3125 0 6-2.683594 6-6 0-3.3125-2.6875-6-6-6zm0 0"></path><path d="m118.363281 321.398438h19.636719c3.3125 0 6-2.683594 6-6 0-3.3125-2.6875-6-6-6h-19.636719c-3.3125 0-6 2.6875-6 6 0 3.316406 2.6875 6 6 6zm0 0"></path><path d="m220.832031 419.398438h-57.09375c-3.3125 0-6 2.6875-6 6 0 3.316406 2.6875 6 6 6h57.09375c3.3125 0 6-2.683594 6-6 0-3.3125-2.6875-6-6-6zm0 0"></path><path d="m140.4375 419.398438h-84.183594c-3.316406 0-6 2.6875-6 6 0 3.316406 2.683594 6 6 6h84.183594c3.3125 0 6-2.683594 6-6 0-3.3125-2.6875-6-6-6zm0 0"></path><path d="m464.054688 7.398438h-219.425782c-15.40625 0-27.628906 12.8125-27.628906 28.222656v64.925781c0 18.210937-13.867188 21-29.144531 22.429687-2.3125.132813-4.613281.453126-6.871094.960938-2.523437.585938-4.449219 2.628906-4.875 5.183594-.195313 1.269531.023437 2.566406.613281 3.707031 1.695313 4.34375 10.65625 22.902344 38.96875 27.90625.746094.183594 1.28125.839844 1.308594 1.609375v8.929688c0 15.40625 12.222656 28.125 27.628906 28.125h219.425782c15.460937-.101563 27.941406-12.664063 27.945312-28.125v-135.652344c.003906-15.480469-12.464844-28.074219-27.945312-28.222656zm15.945312 163.875c.003906 8.835937-7.105469 16.03125-15.945312 16.125h-219.425782c-4.214844-.058594-8.230468-1.792969-11.164062-4.816407-2.929688-3.027343-4.539063-7.097656-4.464844-11.308593v-8.929688c-.007812-6.601562-4.734375-12.253906-11.230469-13.425781-14.355469-2.535157-22.042969-9.191407-26.011719-14.257813 12.976563-1.351562 37.242188-5.597656 37.242188-34.113281v-64.925781c0-8.792969 6.839844-16.222656 15.628906-16.222656h219.425782c8.855468.140624 15.957031 7.367187 15.945312 16.222656zm0 0"></path><path d="m435.746094 79.398438h-94.734375c-3.3125 0-6 2.6875-6 6 0 3.316406 2.6875 6 6 6h94.734375c3.316406 0 6-2.683594 6-6 0-3.3125-2.683594-6-6-6zm0 0"></path><path d="m396.859375 127.398438c3.3125 0 6-2.683594 6-6 0-3.3125-2.6875-6-6-6h-55.847656c-3.3125 0-6 2.6875-6 6 0 3.316406 2.6875 6 6 6zm0 0"></path><path d="m435.746094 115.398438h-14.144532c-3.316406 0-6 2.6875-6 6 0 3.316406 2.683594 6 6 6h14.144532c3.3125 0 6-2.683594 6-6 0-3.3125-2.6875-6-6-6zm0 0"></path><path d="m312.859375 152.398438h-41.691406c-3.3125 0-6 2.6875-6 6 0 3.316406 2.6875 6 6 6h41.691406c3.3125 0 6-2.683594 6-6 0-3.3125-2.6875-6-6-6zm0 0"></path><path d="m435.746094 152.398438h-98.886719c-3.3125 0-6 2.6875-6 6 0 3.316406 2.6875 6 6 6h98.886719c3.316406 0 6-2.683594 6-6 0-3.3125-2.683594-6-6-6zm0 0"></path><path d="m341.011719 54.398438h11.121093c3.3125 0 6-2.683594 6-6 0-3.3125-2.6875-6-6-6h-11.121093c-3.3125 0-6 2.6875-6 6 0 3.316406 2.6875 6 6 6zm0 0"></path><path d="m435.746094 42.398438h-59.925782c-3.316406 0-6 2.6875-6 6 0 3.316406 2.683594 6 6 6h59.925782c3.316406 0 6-2.683594 6-6 0-3.3125-2.683594-6-6-6zm0 0"></path><path d="m66 355.398438h-8.945312c-3.3125 0-6 2.6875-6 6 0 3.316406 2.6875 6 6 6h8.945312v5h-8.945312c-3.3125 0-6 2.6875-6 6 0 3.316406 2.6875 6 6 6h8.945312v4.527343c0 3.3125 2.6875 6 6 6s6-2.6875 6-6v-4.527343h8.554688c3.3125 0 6-2.683594 6-6 0-3.3125-2.6875-6-6-6h-8.554688v-5h8.554688c3.3125 0 6-2.683594 6-6 0-3.3125-2.6875-6-6-6h-8.554688v-2.199219l23.703125-28.425781c2.070313-2.566407 1.691406-6.316407-.84375-8.421876-2.53125-2.105468-6.289063-1.78125-8.429687.71875l-20.613282 24.601563-20.605468-24.601563c-1.359376-1.683593-3.523438-2.5-5.65625-2.132812-2.136719.367188-3.902344 1.859375-4.617188 3.902344-.71875 2.042968-.273438 4.3125 1.164062 5.933594l23.898438 28.425781zm0 0"></path></g><path d="m401.601562 364.636719c31.28125 0 56.636719-25.359375 56.636719-56.640625s-25.355469-56.636719-56.640625-56.636719c-31.28125 0-56.636718 25.359375-56.636718 56.640625.03125 31.265625 25.371093 56.605469 56.640624 56.636719zm0-101.277344c24.652344 0 44.636719 19.984375 44.636719 44.640625 0 24.652344-19.984375 44.640625-44.636719 44.640625-24.65625 0-44.640624-19.988281-44.640624-44.640625.027343-24.644531 19.996093-44.613281 44.640624-44.640625zm0 0" fill="#1ae5be"></path><path d="m401.601562 386.398438c-49.867187-.035157-90.328124 40.335937-90.402343 90.203124.007812 1.570313.652343 3.070313 1.78125 4.160157 1.128906 1.09375 2.648437 1.683593 4.21875 1.636719h168.800781c1.570312.046874 3.089844-.542969 4.222656-1.636719 1.128906-1.089844 1.769532-2.589844 1.777344-4.160157-.074219-49.867187-40.535156-90.238281-90.398438-90.203124zm-78.171874 84c3.074218-40 36.960937-72.398438 78.171874-72.398438 41.210938 0 75.097657 32.398438 78.171876 72.398438zm0 0" fill="#1ae5be"></path><path d="m33.761719 56.644531c0 31.28125 25.359375 56.636719 56.640625 56.636719 31.28125-.003906 56.636718-25.359375 56.636718-56.640625s-25.359374-56.640625-56.640624-56.640625c-31.265626.03125-56.605469 25.375-56.636719 56.644531zm101.277343 0c0 24.652344-19.988281 44.636719-44.640624 44.636719-24.65625-.003906-44.640626-19.988281-44.640626-44.644531.003907-24.652344 19.988282-44.636719 44.640626-44.636719 24.644531.027344 44.613281 20 44.640624 44.644531zm0 0" fill="#1ae5be"></path><path d="m90.398438 135.042969c-49.898438.046875-90.3398442 40.480469-90.398438 90.378906 0 1.589844.632812 3.113281 1.761719 4.234375 1.125 1.121094 2.648437 1.75 4.238281 1.742188h168.800781c1.589844.007812 3.113281-.621094 4.238281-1.742188s1.761719-2.644531 1.761719-4.234375c-.058593-49.898437-40.5-90.332031-90.402343-90.378906zm-78.171876 84.355469c3.074219-40 36.960938-72.398438 78.171876-72.398438 41.210937 0 75.101562 32.398438 78.171874 72.398438zm0 0" fill="#1ae5be"></path></svg>