<!-- icon666.com - MILLIONS vector ICONS FREE --><svg version="1.1" id="Capa_1" xmlns="http://www.w3.org/2000/svg" xmlns:xlink="http://www.w3.org/1999/xlink" x="0px" y="0px" viewBox="0 0 512 512" style="enable-background:new 0 0 512 512;" xml:space="preserve"><path style="fill:#79A1E8;" d="M480.433,222.205c120.821,104.782-136.15,303.084-250.088,190.857 C81.287,266.242,0,375.551,0,215.623S22.067,96.48,190.857,24.767C338.051-37.771,335.502,96.514,480.433,222.205z"></path><ellipse style="fill:#473CBA;" cx="258.555" cy="496.575" rx="120.945" ry="6.508"></ellipse><path style="fill:#FFFFFF;" d="M63.873,409.466L63.873,409.466l-0.002-241.919c0-20.652,16.741-37.393,37.393-37.393h326.938 c20.652,0,37.393,16.741,37.393,37.393l-0.002,241.919l0,0H63.873z"></path><path style="fill:#CFDDF7;" d="M465.596,167.546c0-20.652-16.741-37.393-37.393-37.393h-6.038L142.852,409.466h322.742 L465.596,167.546z"></path><g><path style="fill:#473CBA;" d="M465.593,168.653c0,20.652-16.742,37.394-37.394,37.394h-40.554V446.86H428.2 c20.652,0,37.395-16.742,37.395-37.395L465.593,168.653z"></path><path style="fill:#473CBA;" d="M63.873,168.653c0,20.652,16.742,37.394,37.394,37.394h40.554V446.86h-40.554 c-20.652,0-37.395-16.742-37.395-37.395L63.873,168.653z"></path></g><path style="fill:#4B31AA;" d="M469.837,167.546c0-11.121-4.331-21.576-12.195-29.439c-7.863-7.864-18.318-12.194-29.439-12.194 H101.264c-0.001,0,0,0-0.001,0c-11.119,0-21.575,4.33-29.438,12.194c-7.863,7.863-12.194,18.318-12.194,29.439l0.001,80.74 l-0.001,161.18c0,22.956,18.677,41.633,41.635,41.634h40.554c2.341,0,4.24-1.898,4.24-4.24v-33.155h237.345v33.155 c0,2.341,1.898,4.24,4.24,4.24H428.2c22.958-0.001,41.634-18.679,41.634-41.634v-17.004h0L469.837,167.546z M137.58,442.621h-36.314 c-18.281-0.001-33.155-14.874-33.155-33.155l0-29.778l0.002,0l-0.001-125.089l0-60.79c7.611,10.006,19.641,16.478,33.154,16.478 h36.314L137.58,442.621L137.58,442.621z M383.405,206.047v199.179H146.06V206.047c0-2.341-1.898-4.24-4.24-4.24h-40.554 c-18.281,0-33.154-14.873-33.154-33.154c0-0.004-0.001-0.007-0.001-0.01v-1.096c0-8.856,3.448-17.181,9.71-23.443 c6.261-6.262,14.587-9.71,23.442-9.71h326.939c8.855,0,17.181,3.448,23.443,9.71c6.261,6.262,9.71,14.587,9.71,23.443v1.076 c0,0.01-0.003,0.02-0.003,0.031c0,18.281-14.873,33.154-33.154,33.154h-40.555C385.304,201.807,383.405,203.706,383.405,206.047z M428.2,442.621h-36.315V210.287H428.2c13.512,0,25.543-6.471,33.154-16.478l0.001,215.656 C461.355,427.747,446.481,442.62,428.2,442.621z"></path><path style="fill:#F7931E;" d="M364.346,190.084c2.341,0,4.24-1.898,4.24-4.24v-12.755c0-2.341-1.898-4.24-4.24-4.24H351.59 c-2.341,0-4.24,1.898-4.24,4.24v1.819h-70.783v-1.819c0-2.341-1.898-4.24-4.24-4.24h-12.755c-2.341,0-4.24,1.898-4.24,4.24v1.819 H185.46v-1.819c0-2.341-1.898-4.24-4.24-4.24h-12.755c-2.341,0-4.24,1.898-4.24,4.24v12.755c0,2.341,1.898,4.24,4.24,4.24h1.227 v56.51h-1.227c-2.341,0-4.24,1.898-4.24,4.24v12.755c0,2.341,1.898,4.24,4.24,4.24h1.227v62.362h-1.227 c-2.341,0-4.24,1.898-4.24,4.24v12.755c0,2.341,1.898,4.24,4.24,4.24h12.755c2.341,0,4.24-1.898,4.24-4.24v-2.137h161.89v2.137 c0,2.341,1.898,4.24,4.24,4.24h12.756c2.341,0,4.24-1.898,4.24-4.24V334.43c0-2.341-1.898-4.24-4.24-4.24h-2.139v-62.362h2.139 c2.341,0,4.24-1.898,4.24-4.24v-12.755c0-2.341-1.898-4.24-4.24-4.24h-2.139v-56.51H364.346z M353.727,246.594h-2.137 c-2.341,0-4.24,1.898-4.24,4.24v12.755c0,2.341,1.898,4.24,4.24,4.24h2.137v62.362h-2.137c-2.341,0-4.24,1.898-4.24,4.24v2.138 H185.46v-2.137c0-2.341-1.898-4.24-4.24-4.24h-3.048v-62.362h3.048c2.341,0,4.24-1.898,4.24-4.24v-12.755 c0-2.341-1.898-4.24-4.24-4.24h-3.048v-56.51h3.048c2.341,0,4.24-1.898,4.24-4.24v-2.456h69.873v2.456c0,2.341,1.898,4.24,4.24,4.24 h12.755c2.341,0,4.24-1.898,4.24-4.24v-2.456h70.783v2.456c0,2.341,1.898,4.24,4.24,4.24h2.137L353.727,246.594L353.727,246.594z"></path><path style="fill:#79A1E8;" d="M314.367,448.91h-77.831c-8.149,0-14.755-6.606-14.755-14.755V284.765 c0-8.149,6.606-14.755,14.755-14.755h77.831c8.149,0,14.755,6.606,14.755,14.755v149.391 C329.121,442.304,322.516,448.91,314.367,448.91z"></path><path style="fill:#E1F0FA;" d="M300.534,448.91h-77.831c-8.149,0-14.755-6.606-14.755-14.755V284.765 c0-8.149,6.606-14.755,14.755-14.755h77.831c8.149,0,14.755,6.606,14.755,14.755v149.391 C315.289,442.304,308.683,448.91,300.534,448.91z"></path><path style="fill:#C0D1ED;" d="M207.949,419.626v14.53c0,8.149,6.606,14.755,14.755,14.755h77.831 c8.149,0,14.755-6.606,14.755-14.755v-121.87L207.949,419.626z"></path><path style="fill:#4B31AA;" d="M314.367,265.771h-13.832h-53.209h-24.622c-10.473,0-18.994,8.521-18.994,18.994v149.39 c0,10.473,8.521,18.994,18.994,18.994h21.935h55.896h13.832c10.473,0,18.994-8.521,18.994-18.994v-149.39 C333.361,274.292,324.84,265.771,314.367,265.771z M245.022,444.67h-22.319c-5.798,0-10.515-4.717-10.515-10.515v-149.39 c0-5.798,4.717-10.515,10.515-10.515h27.713h50.119c5.798,0,10.515,4.717,10.515,10.515v149.39c0,5.798-4.717,10.515-10.515,10.515 H245.022z M324.882,434.155c0,5.078-3.619,9.326-8.413,10.303c1.928-2.971,3.06-6.505,3.06-10.303v-149.39 c0-3.798-1.132-7.332-3.06-10.303c4.794,0.977,8.413,5.225,8.413,10.303V434.155z"></path><rect x="222.888" y="287.531" style="fill:#7693DD;" width="77.462" height="132.791"></rect><polygon style="fill:#5C82C6;" points="222.888,404.687 222.888,420.323 300.35,420.323 300.35,327.225 "></polygon><path style="fill:#4B31AA;" d="M300.35,424.563h-77.461c-2.341,0-4.24-1.898-4.24-4.24V287.532c0-2.341,1.898-4.24,4.24-4.24h77.461 c2.341,0,4.24,1.898,4.24,4.24v132.791C304.589,422.665,302.691,424.563,300.35,424.563z M227.128,416.083h68.981V291.772h-68.981 V416.083z"></path><rect x="238.934" y="305.607" style="fill:#F9D015;" width="44.264" height="35.89"></rect><path style="fill:#4B31AA;" d="M283.198,345.736h-44.264c-2.341,0-4.24-1.898-4.24-4.24v-35.89c0-2.341,1.898-4.24,4.24-4.24h44.264 c2.341,0,4.24,1.898,4.24,4.24v35.89C287.437,343.837,285.539,345.736,283.198,345.736z M243.174,337.256h35.784v-27.41h-35.784 L243.174,337.256L243.174,337.256z"></path></svg>