<!-- icon666.com - MILLIONS vector ICONS FREE --><svg viewBox="0 0 256 256" xmlns="http://www.w3.org/2000/svg"><path d="m153.44 21.1v49.63a57.2 57.2 0 0 0 -6.72-.4 55.94 55.94 0 0 0 0 111.88 57.333 57.333 0 0 0 6.72-.4v53.09a15.274 15.274 0 0 1 -15.27 15.27h-116.06a15.274 15.274 0 0 1 -15.27-15.27v-213.8a15.274 15.274 0 0 1 15.27-15.27h116.06a15.274 15.274 0 0 1 15.27 15.27z" fill="#7a7380"></path><path d="m153.44 38.41v32.32a57.2 57.2 0 0 0 -6.72-.4 55.94 55.94 0 0 0 0 111.88 57.333 57.333 0 0 0 6.72-.4v35.78h-146.6v-179.18z" fill="#f2e1d6"></path><path d="m90.78 126.27a55.965 55.965 0 0 0 55.94 55.94 57.333 57.333 0 0 0 6.72-.4v8.9c-1.94.2-4.42.34-6.72.34a64.78 64.78 0 1 1 6.72-129.21v8.89a57.2 57.2 0 0 0 -6.72-.4 55.953 55.953 0 0 0 -55.94 55.94z" fill="#d6c0b4"></path><path d="m16.327 205.5a2.5 2.5 0 0 1 -2.5-2.5v-154.25a2.5 2.5 0 0 1 2.5-2.5h105.75a2.5 2.5 0 0 1 0 5h-103.25v151.75a2.5 2.5 0 0 1 -2.5 2.5zm126.173-154.25h-10.423a2.5 2.5 0 0 1 0-5h10.423a2.5 2.5 0 0 1 0 5z" fill="#fff"></path><path d="m153.44 70.73a57.2 57.2 0 0 0 -6.72-.4 55.94 55.94 0 0 0 0 111.88 57.857 57.857 0 0 0 6.72-.4 55.946 55.946 0 0 0 0-111.08z" fill="#fc5d3d"></path><path d="m207.235 169.689a3.519 3.519 0 0 0 -4.97 0l-1.54 1.55-10.77 10.761-1.54 1.54a3.519 3.519 0 0 0 0 4.97l41.665 41.665 19.08-18.56z" fill="#fc5d3d"></path><path d="m230.145 220.347-4.951-4.95a2.5 2.5 0 0 1 3.535-3.536l4.951 4.95a2.5 2.5 0 0 1 -3.535 3.536zm-12.021-12.022-20.124-20.125a2.5 2.5 0 0 1 0-3.537l6.6-6.589a2.5 2.5 0 0 1 3.533 3.538l-4.827 4.821 18.359 18.359a2.5 2.5 0 1 1 -3.535 3.535z" fill="#ffcbc2"></path><path d="m200.72 171.24-10.77 10.76-10.43-10.43a55.5 55.5 0 0 0 11.01-10.53z" fill="#f2e1d6"></path><path d="m146.717 85.934a40.332 40.332 0 1 0 40.337 40.337 40.34 40.34 0 0 0 -40.337-40.337z" fill="#d6c0b4"></path><path d="m146.721 160.083a34.112 34.112 0 0 1 -6.621-.65 2.5 2.5 0 0 1 .972-4.905 29.092 29.092 0 0 0 5.649.555 28.833 28.833 0 0 0 20.384-49.208 2.5 2.5 0 0 1 3.536-3.536 33.834 33.834 0 0 1 -23.92 57.744zm-16.7-4.394a33.819 33.819 0 0 1 -7.224-5.5 2.5 2.5 0 0 1 3.535-3.537 28.841 28.841 0 0 0 6.155 4.692 2.5 2.5 0 1 1 -2.466 4.349z" fill="#f2e1d6"></path><path d="m26.311 58.56h32.298v32.298h-32.298z" fill="#13bf6d"></path><path d="m26.311 114.631h32.298v32.298h-32.298z" fill="#fc5d3d"></path><path d="m26.311 170.702h32.298v32.298h-32.298z" fill="#13bf6d"></path><circle cx="46.84" cy="38.41" r="2.5"></circle><circle cx="113.439" cy="217.59" r="2.5"></circle><path d="m92.233 231.378h-24.186a2.5 2.5 0 1 0 0 5h24.186a2.5 2.5 0 0 0 0-5z"></path><path d="m98.436 24.622h1.25a2.5 2.5 0 0 0 0-5h-1.25a2.5 2.5 0 0 0 0 5z"></path><path d="m60.6 24.622h24.427a2.5 2.5 0 0 0 0-5h-24.427a2.5 2.5 0 0 0 0 5z"></path><path d="m250.928 209.846-41.928-41.926a6.021 6.021 0 0 0 -8.262-.2l-6.9-6.9a58.425 58.425 0 0 0 -10.158-79.82 2.581 2.581 0 0 0 -3.52.35 2.506 2.506 0 0 0 .36 3.52 53.445 53.445 0 0 1 -33.75 94.84h-.05a53.44 53.44 0 1 1 17.18-104.06 2.532 2.532 0 0 0 3.17-1.56 2.494 2.494 0 0 0 -1.559-3.17 57.508 57.508 0 0 0 -9.57-2.349v-47.471a17.79 17.79 0 0 0 -17.771-17.77h-116.06a17.791 17.791 0 0 0 -17.77 17.77v213.8a17.791 17.791 0 0 0 17.77 17.77h116.06a17.79 17.79 0 0 0 17.77-17.77v-50.921a58.234 58.234 0 0 0 23.291-9.163l7.209 7.209a6.016 6.016 0 0 0 .207 8.251l41.666 41.665a2.5 2.5 0 0 0 3.535-3.535l-41.665-41.665a1.021 1.021 0 0 1 0-1.435c14.007-14 11.806-11.793 13.842-13.843a1.025 1.025 0 0 1 1.443-.007l41.925 41.925a2.5 2.5 0 0 0 3.535-3.535zm-112.758 37.824h-116.06a12.784 12.784 0 0 1 -12.77-12.77v-14.81h94.1a2.5 2.5 0 0 0 0-5h-94.1v-174.18h27.5a2.5 2.5 0 0 0 0-5h-27.5v-14.81a12.784 12.784 0 0 1 12.77-12.77h116.06a12.784 12.784 0 0 1 12.77 12.77v14.81h-94.1a2.5 2.5 0 0 0 0 5h94.1v27.08a58.151 58.151 0 0 0 -39.052 11.351h-30.671a2.5 2.5 0 0 0 0 5h24.822a57.978 57.978 0 0 0 -17.525 36.807h-7.3a2.5 2.5 0 0 0 0 5h7.066v.122a58.636 58.636 0 0 0 .72 9.143h-7.783a2.5 2.5 0 1 0 0 5h8.8a58.454 58.454 0 0 0 56.7 44.3c1.368 0 2.826-.06 4.22-.157v30.534h-27.5a2.5 2.5 0 0 0 0 5h27.5v14.81a12.784 12.784 0 0 1 -12.767 12.77zm52.53-82.925 6.484 6.491c-6.469 6.469-5.448 5.448-7.231 7.229l-6.639-6.639a58.78 58.78 0 0 0 7.386-7.081z"></path><path d="m103.891 126.271a42.832 42.832 0 1 0 42.826-42.837 42.875 42.875 0 0 0 -42.826 42.837zm80.663 0a37.832 37.832 0 1 1 -37.837-37.837 37.875 37.875 0 0 1 37.837 37.837z"></path><path d="m81.217 70.077h22.924a2.5 2.5 0 1 0 0-5h-22.924a2.5 2.5 0 1 0 0 5z"></path><path d="m130.5 193.983a2.5 2.5 0 0 0 -2.5-2.5h-46.783a2.5 2.5 0 1 0 0 5h46.783a2.5 2.5 0 0 0 2.5-2.5z"></path><path d="m81.217 182.219h22.924a2.5 2.5 0 1 0 0-5h-22.924a2.5 2.5 0 1 0 0 5z"></path><path d="m63.616 50.908a2.5 2.5 0 0 0 -3.461.723l-2.9 4.429h-30.944a2.5 2.5 0 0 0 -2.5 2.5v32.3a2.5 2.5 0 0 0 2.5 2.5h32.3a2.5 2.5 0 0 0 2.5-2.5v-31.554l3.231-4.937a2.5 2.5 0 0 0 -.726-3.461zm-7.508 37.45h-27.3v-27.298h25.178l-10.049 15.358-4.352-4.351a2.5 2.5 0 1 0 -3.535 3.533l6.526 6.527a2.5 2.5 0 0 0 3.86-.4l9.672-14.783z"></path><path d="m63.616 163.05a2.5 2.5 0 0 0 -3.461.723l-2.9 4.43h-30.944a2.5 2.5 0 0 0 -2.5 2.5v32.297a2.5 2.5 0 0 0 2.5 2.5h32.3a2.5 2.5 0 0 0 2.5-2.5v-31.552l3.231-4.937a2.5 2.5 0 0 0 -.726-3.461zm-7.508 37.45h-27.3v-27.3h25.177l-10.048 15.36-4.352-4.351a2.5 2.5 0 1 0 -3.535 3.535l6.526 6.527a2.5 2.5 0 0 0 3.86-.4l9.672-14.783z"></path><path d="m26.311 149.429h32.3a2.505 2.505 0 0 0 2.5-2.5v-32.3a2.508 2.508 0 0 0 -2.5-2.5h-32.3a2.506 2.506 0 0 0 -2.5 2.5v32.3a2.5 2.5 0 0 0 2.5 2.5zm19.689-18.649 10.113-10.114v20.228zm6.578 13.649h-20.232l10.113-10.114zm-10.119-17.184-10.113-10.114h20.227zm-3.535 3.535-10.113 10.114v-20.228z"></path><path d="m131.836 110.667a2.5 2.5 0 0 0 2.5 2.5h24.771a2.5 2.5 0 0 0 0-5h-24.771a2.5 2.5 0 0 0 -2.5 2.5z"></path><path d="m125.943 128a2.5 2.5 0 0 0 2.5 2.5h36.557a2.5 2.5 0 0 0 0-5h-36.557a2.5 2.5 0 0 0 -2.5 2.5z"></path><path d="m159.107 142.833h-24.771a2.5 2.5 0 0 0 0 5h24.771a2.5 2.5 0 0 0 0-5z"></path><path d="m172.62 79.51a2.5 2.5 0 0 0 2.43-4.37 2.559 2.559 0 0 0 -3.4.98 2.484 2.484 0 0 0 .97 3.39z"></path></svg>